# xmcd
#
# Track frame offsets:
#	150
#	12501
#	25215
#	40748
#	59904
#	73027
#	86409
#	105422
#	117720
#	127515
#
# Disc length: 1878 seconds
#
# Revision: 1
# Processed by: cddbd v1.4PL0 Copyright (c) Steve Scherf et al.
# Submitted via: audiograbber 1.82.00
#
DISCID=8207540a
DTITLE=Clint Black - One Emotion
DYEAR=1994
DGENRE=Country
TTITLE0=One Emotion
TTITLE1=Summer's Comin'
TTITLE2=Untanglin' My Mind
TTITLE3=Wherever You Go
TTITLE4=A Change In The Air
TTITLE5=Life Gets Away
TTITLE6=I Can Get By
TTITLE7=Hey Hot Rod
TTITLE8=You Walked By
TTITLE9=You Made Me Feel
EXTD=
EXTT0=
EXTT1=
EXTT2=
EXTT3=
EXTT4=
EXTT5=
EXTT6=
EXTT7=
EXTT8=
EXTT9=
PLAYORDER=
